<mxfile host="app.diagrams.net" modified="2024-01-15T11:42:09.479Z" agent="Mozilla/5.0 (Macintosh; Intel Mac OS X 10_15_7) AppleWebKit/537.36 (KHTML, like Gecko) Chrome/120.0.0.0 Safari/537.36" etag="hhvsB7_-teGyRf_SluEi" version="22.1.18" type="github">
  <diagram name="第 1 页" id="fcDZC7X3gY18VGGanK3O">
    <mxGraphModel dx="2074" dy="1180" grid="1" gridSize="10" guides="1" tooltips="1" connect="1" arrows="1" fold="1" page="1" pageScale="1" pageWidth="1200" pageHeight="500" math="0" shadow="0">
      <root>
        <mxCell id="0" />
        <mxCell id="1" parent="0" />
        <mxCell id="Z4_qTKPIPef7RcRRWfm--1" value="股票行情" style="rounded=1;whiteSpace=wrap;html=1;" vertex="1" parent="1">
          <mxGeometry x="80" y="40" width="80" height="30" as="geometry" />
        </mxCell>
        <mxCell id="Z4_qTKPIPef7RcRRWfm--2" value="公司市值" style="rounded=1;whiteSpace=wrap;html=1;" vertex="1" parent="1">
          <mxGeometry x="190" y="40" width="80" height="30" as="geometry" />
        </mxCell>
        <mxCell id="Z4_qTKPIPef7RcRRWfm--3" value="财务表现" style="rounded=1;whiteSpace=wrap;html=1;" vertex="1" parent="1">
          <mxGeometry x="300" y="40" width="80" height="30" as="geometry" />
        </mxCell>
        <mxCell id="Z4_qTKPIPef7RcRRWfm--4" value="发展策略" style="rounded=1;whiteSpace=wrap;html=1;" vertex="1" parent="1">
          <mxGeometry x="410" y="40" width="80" height="30" as="geometry" />
        </mxCell>
        <mxCell id="Z4_qTKPIPef7RcRRWfm--5" value="" style="endArrow=none;dashed=1;html=1;dashPattern=1 3;strokeWidth=4;rounded=0;" edge="1" parent="1">
          <mxGeometry width="50" height="50" relative="1" as="geometry">
            <mxPoint x="500" y="54.5" as="sourcePoint" />
            <mxPoint x="567.5" y="54.5" as="targetPoint" />
          </mxGeometry>
        </mxCell>
        <mxCell id="Z4_qTKPIPef7RcRRWfm--6" value="行业趋势" style="rounded=1;whiteSpace=wrap;html=1;" vertex="1" parent="1">
          <mxGeometry x="592.5" y="40" width="80" height="30" as="geometry" />
        </mxCell>
        <mxCell id="Z4_qTKPIPef7RcRRWfm--13" value="产品问询" style="rounded=1;whiteSpace=wrap;html=1;" vertex="1" parent="1">
          <mxGeometry x="80" y="100" width="80" height="30" as="geometry" />
        </mxCell>
        <mxCell id="Z4_qTKPIPef7RcRRWfm--14" value="配置建议" style="rounded=1;whiteSpace=wrap;html=1;" vertex="1" parent="1">
          <mxGeometry x="190" y="100" width="80" height="30" as="geometry" />
        </mxCell>
        <mxCell id="Z4_qTKPIPef7RcRRWfm--15" value="持仓检视" style="rounded=1;whiteSpace=wrap;html=1;" vertex="1" parent="1">
          <mxGeometry x="300" y="100" width="80" height="30" as="geometry" />
        </mxCell>
        <mxCell id="Z4_qTKPIPef7RcRRWfm--16" value="风险评估" style="rounded=1;whiteSpace=wrap;html=1;" vertex="1" parent="1">
          <mxGeometry x="410" y="100" width="80" height="30" as="geometry" />
        </mxCell>
        <mxCell id="Z4_qTKPIPef7RcRRWfm--17" value="" style="endArrow=none;dashed=1;html=1;dashPattern=1 3;strokeWidth=4;rounded=0;" edge="1" parent="1">
          <mxGeometry width="50" height="50" relative="1" as="geometry">
            <mxPoint x="500" y="114.5" as="sourcePoint" />
            <mxPoint x="567.5" y="114.5" as="targetPoint" />
          </mxGeometry>
        </mxCell>
        <mxCell id="Z4_qTKPIPef7RcRRWfm--18" value="产品购买" style="rounded=1;whiteSpace=wrap;html=1;" vertex="1" parent="1">
          <mxGeometry x="592.5" y="100" width="80" height="30" as="geometry" />
        </mxCell>
        <mxCell id="Z4_qTKPIPef7RcRRWfm--25" value="" style="edgeStyle=orthogonalEdgeStyle;rounded=0;orthogonalLoop=1;jettySize=auto;html=1;" edge="1" parent="1" source="Z4_qTKPIPef7RcRRWfm--26">
          <mxGeometry relative="1" as="geometry">
            <mxPoint x="263" y="240" as="targetPoint" />
          </mxGeometry>
        </mxCell>
        <mxCell id="Z4_qTKPIPef7RcRRWfm--26" value="业务维度" style="rounded=1;whiteSpace=wrap;html=1;" vertex="1" parent="1">
          <mxGeometry x="80" y="220" width="120" height="40" as="geometry" />
        </mxCell>
        <mxCell id="Z4_qTKPIPef7RcRRWfm--30" value="股票对比" style="text;html=1;strokeColor=none;fillColor=none;align=center;verticalAlign=middle;whiteSpace=wrap;rounded=0;" vertex="1" parent="1">
          <mxGeometry x="690" y="40" width="100" height="30" as="geometry" />
        </mxCell>
        <mxCell id="Z4_qTKPIPef7RcRRWfm--31" value="理财师" style="text;html=1;strokeColor=none;fillColor=none;align=center;verticalAlign=middle;whiteSpace=wrap;rounded=0;" vertex="1" parent="1">
          <mxGeometry x="675" y="100" width="130" height="30" as="geometry" />
        </mxCell>
        <mxCell id="Z4_qTKPIPef7RcRRWfm--39" value="" style="edgeStyle=orthogonalEdgeStyle;rounded=0;orthogonalLoop=1;jettySize=auto;html=1;" edge="1" parent="1" source="Z4_qTKPIPef7RcRRWfm--32" target="Z4_qTKPIPef7RcRRWfm--38">
          <mxGeometry relative="1" as="geometry" />
        </mxCell>
        <mxCell id="Z4_qTKPIPef7RcRRWfm--32" value="LLM" style="rounded=1;whiteSpace=wrap;html=1;" vertex="1" parent="1">
          <mxGeometry x="260" y="220" width="120" height="40" as="geometry" />
        </mxCell>
        <mxCell id="Z4_qTKPIPef7RcRRWfm--33" value="" style="endArrow=none;dashed=1;html=1;rounded=0;" edge="1" parent="1">
          <mxGeometry width="50" height="50" relative="1" as="geometry">
            <mxPoint x="70" y="160" as="sourcePoint" />
            <mxPoint x="740" y="160" as="targetPoint" />
          </mxGeometry>
        </mxCell>
        <mxCell id="Z4_qTKPIPef7RcRRWfm--35" value="&lt;font style=&quot;font-size: 16px;&quot;&gt;业务提供专业维度&lt;/font&gt;" style="text;html=1;strokeColor=none;fillColor=none;align=center;verticalAlign=middle;whiteSpace=wrap;rounded=0;" vertex="1" parent="1">
          <mxGeometry x="70" width="150" height="30" as="geometry" />
        </mxCell>
        <mxCell id="Z4_qTKPIPef7RcRRWfm--36" value="" style="endArrow=none;dashed=1;html=1;dashPattern=1 3;strokeWidth=4;rounded=0;" edge="1" parent="1">
          <mxGeometry width="50" height="50" relative="1" as="geometry">
            <mxPoint x="306.25" y="150" as="sourcePoint" />
            <mxPoint x="373.75" y="150" as="targetPoint" />
          </mxGeometry>
        </mxCell>
        <mxCell id="Z4_qTKPIPef7RcRRWfm--37" value="&lt;font style=&quot;font-size: 16px;&quot;&gt;算法进行维度泛化和策划方案生成&lt;/font&gt;" style="text;html=1;strokeColor=none;fillColor=none;align=center;verticalAlign=middle;whiteSpace=wrap;rounded=0;" vertex="1" parent="1">
          <mxGeometry x="70" y="170" width="270" height="30" as="geometry" />
        </mxCell>
        <mxCell id="Z4_qTKPIPef7RcRRWfm--41" value="" style="edgeStyle=orthogonalEdgeStyle;rounded=0;orthogonalLoop=1;jettySize=auto;html=1;" edge="1" parent="1" source="Z4_qTKPIPef7RcRRWfm--38" target="Z4_qTKPIPef7RcRRWfm--40">
          <mxGeometry relative="1" as="geometry" />
        </mxCell>
        <mxCell id="Z4_qTKPIPef7RcRRWfm--38" value="维度泛化" style="rounded=1;whiteSpace=wrap;html=1;" vertex="1" parent="1">
          <mxGeometry x="440" y="220" width="120" height="40" as="geometry" />
        </mxCell>
        <mxCell id="Z4_qTKPIPef7RcRRWfm--40" value="策划方案生成" style="rounded=1;whiteSpace=wrap;html=1;" vertex="1" parent="1">
          <mxGeometry x="610" y="220" width="120" height="40" as="geometry" />
        </mxCell>
      </root>
    </mxGraphModel>
  </diagram>
</mxfile>
